# xmcd
#
# Track frame offsets:
#	150
#	20114
#	36957
#	41543
#	65643
#	94376
#	109875
#	133604
#	143580
#	164856
#	180803
#	189413
#
# Disc length: 2983 seconds
#
# Revision: 1
# Processed by: cddbd v1.5.1PL0 Copyright (c) Steve Scherf et al.
# Submitted via: audiograbber 1.83.01
#
DISCID=ab0ba50c
DTITLE=VARIOUS ARTIST - Belgrade Blues Today
DYEAR=1994
DGENRE=Blues
TTITLE0=RAW HIDE-Cuttin Out
TTITLE1=DR PROJECT POINT BLANCK-Baby Blues
TTITLE2=LONESOME BOB TILLY-John, the REvelator
TTITLE3=BEER DRINKERS AND HELL RAISER-Mustang Sally
TTITLE4=CONFUSED-Damn Your Eyes
TTITLE5=DI LUNA BLUES BAND-Gibson Greek Shuffle
TTITLE6=ZONA B and BEBY DOLL-When The Eagles Flies
TTITLE7=ZORA VITAS and PAPA NICK-Be My Hausband
TTITLE8=DON GIOVANNI and WILD SHUFFLE-Please Stay Away
TTITLE9=BETON BAND-Halloween
TTITLE10=DRAGAN RUZIC MACAN-Mercury Blues
TTITLE11=VLADA and NEW BLUES GENERATION-Leave My Girl Alone
EXTD=Recorded 1994 PGP RTS
EXTT0=
EXTT1=
EXTT2=
EXTT3=
EXTT4=
EXTT5=
EXTT6=
EXTT7=
EXTT8=
EXTT9=
EXTT10=
EXTT11=
PLAYORDER=
